<svg xmlns="http://www.w3.org/2000/svg" viewBox="0 0 864 576"><defs><style>.cls-1{fill:#0096d6;}.cls-2{fill:#fff;}</style></defs><g id="Ebene_2" data-name="Ebene 2"><g id="Layer_1" data-name="Layer 1"><path class="cls-1" d="M864,72v72H792V72H720V0h72A72,72,0,0,1,864,72Z"/><path class="cls-1" d="M864,432v72a72,72,0,0,1-72,72H720V504h72V432Z"/><path class="cls-1" d="M144,504v72H72A72,72,0,0,1,0,504H0V432H72v72Z"/><path class="cls-1" d="M144,0V72H72v72H0V72H0A72,72,0,0,1,72,0Z"/><path class="cls-2" d="M581.4,116,370,332.72l-99-93.87-69.58,69.61L370,472,651,185.62Z"/></g></g></svg>